<?xml version="1.0" encoding="utf-8"?>
<!-- Generator: Adobe Illustrator 25.4.1, SVG Export Plug-In . SVG Version: 6.00 Build 0)  -->
<svg version="1.1" id="Layer_1" xmlns="http://www.w3.org/2000/svg" xmlns:xlink="http://www.w3.org/1999/xlink" x="0px" y="0px"
	 viewBox="0 0 850 350" style="enable-background:new 0 0 850 350;" xml:space="preserve">
<style type="text/css">
	.st0{fill:url(#SVGID_1_);}
	.st1{fill:url(#SVGID_00000165215081640844037310000007133983419022533038_);}
	.st2{fill:url(#SVGID_00000009569745765583353580000013101149119099827641_);}
	.st3{fill:url(#SVGID_00000129895566953036597700000004187587929712839823_);}
	.st4{fill:url(#SVGID_00000140722059326095781960000002490993380146054029_);}
	.st5{fill:url(#SVGID_00000176739993365876845250000005441844689548652205_);}
	.st6{fill:url(#SVGID_00000040562886543059761460000011748269761687196288_);}
	.st7{fill:url(#SVGID_00000039111579221644378370000006896221300047146128_);}
	.st8{fill:url(#SVGID_00000010289636415499476140000008987045514311975063_);}
	.st9{fill:url(#SVGID_00000006673230676543310600000010491010100925184394_);}
	.st10{fill:url(#SVGID_00000054972198780205610940000004168444142777223097_);}
	.st11{fill:url(#SVGID_00000170251625534869430860000011494090505599494061_);}
	.st12{fill:url(#SVGID_00000017516790036671301170000012258786760108931511_);}
	.st13{fill:url(#SVGID_00000145764754763600362110000002471778253635029899_);}
	.st14{fill:#3C6BB3;}
</style>
<g>
	<linearGradient id="SVGID_1_" gradientUnits="userSpaceOnUse" x1="263.6625" y1="140.0877" x2="821.0828" y2="140.0877">
		<stop  offset="0" style="stop-color:#3C6BB3"/>
		<stop  offset="0.2539" style="stop-color:#3661A2"/>
		<stop  offset="0.7547" style="stop-color:#264676"/>
		<stop  offset="1" style="stop-color:#1D375E"/>
	</linearGradient>
	<path class="st0" d="M778.3,202.21c-1.28-0.82-2.62-0.38-3.91,0.7c-9.09,8.71-23.22,20.42-33.7,19.86
		c-17.47-0.11-9.99-38.36-7.13-51.08c21.32-23.43,91.22-98.93,87.38-124.25c-1.57-11.59-23.4-6.33-31.19-2.71
		c-34.56,15.46-61.58,61.62-77.13,96.39c-6.89,19.14-13.02,41.47-14.59,61.89c-0.23,0.21-0.45,0.43-0.66,0.7
		c-4.48,3.59-11.57,10.54-16.25,13.44c-6.52,4.25-18.21,9.57-23.67,1.3c-6.6-10.47-5.04-26.31-5.92-38.32
		c-0.2-4.21-0.57-7.75-1.1-10.63c-0.54-2.87-1.67-4.31-3.41-4.31s-3.61,1.3-5.62,3.91c-7.97,10.42-14.67,25.16-23.67,35.51
		c-6.23,7.06-13.69,14.02-23.27,13.94c-5.57-0.1-10.02-4.39-11.13-10.33c-1.65-10.09,1.98-19.23,8.73-29.39
		c9.87-14.92,29.7-31.12,47.95-31.7c6.16-0.08,9.98,0.9,14.24,2.91c2.62,1.18,3.37,1.87,5.82-0.3c0.93-0.93,0.83-2.04-0.3-3.31
		c-4.02-3.76-10.12-4.59-16.75-5.22c-19.55-0.97-39.15,7.08-55.37,20.16c-14.96,11.88-27.26,26.1-33.7,43.2l-0.5,1.84
		c-7.27,6.43-24.17,19.92-32.29,14.31c-10.51-7.27,6.95-42.06,8.11-59.41c1.6-12.25-2.06-21.51-2.06-21.51
		c-6.57-13.64-26.44-11.09-37.8-1.13c-11.36,9.96-41.51,57.32-47.62,62.98c-1.73,1.61-4.89,5.33-5.96-1.1
		c-1.07-6.43,2.12-21.67,2.12-21.67c6.67-9.22,9.06-15.02,10.59-20.24c1.11-3.78,1.67-8.29,0.78-12.12
		c-1.41-6.02-5.41-11.44-13.89-7.81c-18.36,7.85-24.77,29.19-28.32,54.85c-0.71,5.1-1.01,9.62-1.06,13.61
		c-3.84,3.32-8.5,7.67-12.18,9.96c-6.52,4.25-18.21,9.57-23.67,1.3c-6.61-10.47-5.04-26.31-5.92-38.32
		c-0.2-4.21-0.57-7.75-1.1-10.63c-0.54-2.87-1.67-4.31-3.41-4.31c-1.74,0-3.61,1.3-5.62,3.91c-7.97,10.42-14.66,25.16-23.67,35.51
		c-6.22,7.06-13.69,14.02-23.27,13.94c-5.57-0.1-10.02-4.39-11.13-10.33c-0.74-3.41-0.54-7.55,0.6-12.44
		c1.13-4.88,3.84-10.53,8.12-16.95c9.87-14.92,29.7-31.12,47.94-31.7c6.16-0.08,9.98,0.9,14.24,2.91c2.62,1.18,3.37,1.87,5.82-0.3
		c0.93-0.93,0.83-2.04-0.3-3.31c-4.03-3.74-10.12-4.61-16.75-5.21c-11.35-0.72-22.52,2.03-34,6.92
		c-6.89,2.94-14.01,7.36-21.37,13.24c-16.9,13.45-31.67,31-36.01,51.46c-1.74,9.41-0.46,18.15,7.32,23.47
		c8.35,5.34,21.3,4.35,30.79-1.2c5.68-3.14,10.86-6.65,15.55-10.53c5.98-4.72,13.39-12.36,17.05-16.25
		c0.31,8.18,2.69,19.95,9.13,26.78c2.74,3.14,6.52,4.71,11.33,4.71c9.57,0.08,19.11-4.35,27.58-9.03
		c8.34-4.66,16.21-10.96,23.08-17.05c0.78,11.53,3.8,16.83,3.8,16.83c2.09,5.78,12.44,13.17,23.99,6.81s37.75-53.7,41.04-59.11
		c9.23-15.17,25.64-36.48,25.64-21.62c0,13.78-10.29,39.07-13.79,53.88c-7.33,31.08,9.04,30.73,25.59,27.5
		c13.02-2.54,31.5-17.03,38.79-23.1c-2.16,14.76,5.67,25.19,21.72,24.88c5.48,0,11.06-1.57,16.75-4.71
		c5.68-3.14,10.87-6.65,15.55-10.53c6.02-4.75,13.36-12.33,17.05-16.25c0.3,8.17,2.69,19.95,9.13,26.78
		c2.74,3.14,6.52,4.71,11.34,4.71c9.57,0.08,19.11-4.35,27.58-9.03c10.02-5.63,19.33-13.45,27.28-20.89
		c-0.24,13.72,3.74,30.37,20.16,29.91c9.45,0.06,19.06-3.71,27.48-8.23c8.09-4.32,15.95-10.3,22.57-15.85
		c4.08-3.45,8.21-7.13,10.73-10.03C779.59,204.6,779.36,202.99,778.3,202.21z M744.1,135.91c3.88-10.83,8.29-21.46,13.24-31.9
		c4.95-10.43,10.1-19.73,15.45-27.88c5.35-8.16,10.76-14.71,16.25-19.66c5.48-4.95,10.7-7.42,15.65-7.42c4.95,0,7.22,2.18,6.82,6.52
		c-0.4,4.35-2.61,10.1-6.62,17.25c-4.01,7.16-9.4,15.32-16.15,24.47c-6.75,9.16-14.08,18.49-21.97,27.98
		c-9.12,11.03-19.26,22.8-30.44,35.3C738.52,152.47,741.11,144.25,744.1,135.91z"/>
	<g>
		
			<linearGradient id="SVGID_00000169523561731942233550000017465543070731391648_" gradientUnits="userSpaceOnUse" x1="110.5126" y1="150.4878" x2="229.4605" y2="-55.5361">
			<stop  offset="0" style="stop-color:#B57E10"/>
			<stop  offset="0.1507" style="stop-color:#B57E10"/>
			<stop  offset="0.4134" style="stop-color:#E5C35C"/>
			<stop  offset="0.5385" style="stop-color:#F9DF7B"/>
			<stop  offset="0.6826" style="stop-color:#FFF3A6"/>
			<stop  offset="0.8058" style="stop-color:#F9DF7B"/>
			<stop  offset="1" style="stop-color:#B57E10"/>
		</linearGradient>
		<path style="fill:url(#SVGID_00000169523561731942233550000017465543070731391648_);" d="M228.73,89.45
			c0.7-2.9,1.35-5.58,1.93-8.02H67.53l-4.75,8.02H228.73z"/>
		
			<linearGradient id="SVGID_00000013885706135793783280000007356613669210674346_" gradientUnits="userSpaceOnUse" x1="102.5974" y1="182.4203" x2="221.6574" y2="-23.7977">
			<stop  offset="0" style="stop-color:#B57E10"/>
			<stop  offset="0.1507" style="stop-color:#B57E10"/>
			<stop  offset="0.4134" style="stop-color:#E5C35C"/>
			<stop  offset="0.5385" style="stop-color:#F9DF7B"/>
			<stop  offset="0.6826" style="stop-color:#FFF3A6"/>
			<stop  offset="0.8058" style="stop-color:#F9DF7B"/>
			<stop  offset="1" style="stop-color:#B57E10"/>
		</linearGradient>
		<path style="fill:url(#SVGID_00000013885706135793783280000007356613669210674346_);" d="M223.55,109.59
			c0.72-2.66,1.44-5.35,2.14-8.02H70.5l-4.76,8.02H223.55z"/>
		
			<linearGradient id="SVGID_00000072281971296656604230000004545811129861881736_" gradientUnits="userSpaceOnUse" x1="94.3135" y1="214.5145" x2="213.5064" y2="8.0663">
			<stop  offset="0" style="stop-color:#B57E10"/>
			<stop  offset="0.1507" style="stop-color:#B57E10"/>
			<stop  offset="0.4134" style="stop-color:#E5C35C"/>
			<stop  offset="0.5385" style="stop-color:#F9DF7B"/>
			<stop  offset="0.6826" style="stop-color:#FFF3A6"/>
			<stop  offset="0.8058" style="stop-color:#F9DF7B"/>
			<stop  offset="1" style="stop-color:#B57E10"/>
		</linearGradient>
		<path style="fill:url(#SVGID_00000072281971296656604230000004545811129861881736_);" d="M217.83,129.72
			c0.73-2.45,1.43-4.87,2.12-7.24l0.22-0.79H73.46l-4.75,8.02H217.83z"/>
		
			<linearGradient id="SVGID_00000106113543400518272820000008560255449728659108_" gradientUnits="userSpaceOnUse" x1="85.707" y1="246.7673" x2="205.0561" y2="40.0487">
			<stop  offset="0" style="stop-color:#B57E10"/>
			<stop  offset="0.1507" style="stop-color:#B57E10"/>
			<stop  offset="0.4134" style="stop-color:#E5C35C"/>
			<stop  offset="0.5385" style="stop-color:#F9DF7B"/>
			<stop  offset="0.6826" style="stop-color:#FFF3A6"/>
			<stop  offset="0.8058" style="stop-color:#F9DF7B"/>
			<stop  offset="1" style="stop-color:#B57E10"/>
		</linearGradient>
		<path style="fill:url(#SVGID_00000106113543400518272820000008560255449728659108_);" d="M211.64,149.86
			c0.86-2.71,1.7-5.39,2.52-8.02H76.43l-4.76,8.02H211.64z"/>
		
			<linearGradient id="SVGID_00000130610398268030068660000006337423322733990826_" gradientUnits="userSpaceOnUse" x1="76.7863" y1="279.1649" x2="196.32" y2="72.1265">
			<stop  offset="0" style="stop-color:#B57E10"/>
			<stop  offset="0.1507" style="stop-color:#B57E10"/>
			<stop  offset="0.4134" style="stop-color:#E5C35C"/>
			<stop  offset="0.5385" style="stop-color:#F9DF7B"/>
			<stop  offset="0.6826" style="stop-color:#FFF3A6"/>
			<stop  offset="0.8058" style="stop-color:#F9DF7B"/>
			<stop  offset="1" style="stop-color:#B57E10"/>
		</linearGradient>
		<path style="fill:url(#SVGID_00000130610398268030068660000006337423322733990826_);" d="M204.99,169.99
			c0.94-2.7,1.85-5.39,2.73-8.02H79.4l-4.76,8.02H204.99z"/>
		
			<linearGradient id="SVGID_00000124128245710922028910000002014050630076052124_" gradientUnits="userSpaceOnUse" x1="67.3643" y1="311.7639" x2="187.1241" y2="104.3338">
			<stop  offset="0" style="stop-color:#B57E10"/>
			<stop  offset="0.1507" style="stop-color:#B57E10"/>
			<stop  offset="0.4134" style="stop-color:#E5C35C"/>
			<stop  offset="0.5385" style="stop-color:#F9DF7B"/>
			<stop  offset="0.6826" style="stop-color:#FFF3A6"/>
			<stop  offset="0.8058" style="stop-color:#F9DF7B"/>
			<stop  offset="1" style="stop-color:#B57E10"/>
		</linearGradient>
		<path style="fill:url(#SVGID_00000124128245710922028910000002014050630076052124_);" d="M197.57,190.13
			c1.05-2.69,2.07-5.38,3.06-8.02H82.37l-4.76,8.02H197.57z"/>
		
			<linearGradient id="SVGID_00000053538281303404745310000017932400158009126827_" gradientUnits="userSpaceOnUse" x1="57.3338" y1="344.6556" x2="177.3805" y2="136.7285">
			<stop  offset="0" style="stop-color:#B57E10"/>
			<stop  offset="0.1507" style="stop-color:#B57E10"/>
			<stop  offset="0.4134" style="stop-color:#E5C35C"/>
			<stop  offset="0.5385" style="stop-color:#F9DF7B"/>
			<stop  offset="0.6826" style="stop-color:#FFF3A6"/>
			<stop  offset="0.8058" style="stop-color:#F9DF7B"/>
			<stop  offset="1" style="stop-color:#B57E10"/>
		</linearGradient>
		<path style="fill:url(#SVGID_00000053538281303404745310000017932400158009126827_);" d="M189.27,210.26
			c1.16-2.65,2.31-5.34,3.43-8.02H85.34l-4.75,8.02H189.27z"/>
		
			<linearGradient id="SVGID_00000016783627236500279100000017234749685048005306_" gradientUnits="userSpaceOnUse" x1="46.5138" y1="377.9345" x2="166.9397" y2="169.3507">
			<stop  offset="0" style="stop-color:#B57E10"/>
			<stop  offset="0.1507" style="stop-color:#B57E10"/>
			<stop  offset="0.4134" style="stop-color:#E5C35C"/>
			<stop  offset="0.5385" style="stop-color:#F9DF7B"/>
			<stop  offset="0.6826" style="stop-color:#FFF3A6"/>
			<stop  offset="0.8058" style="stop-color:#F9DF7B"/>
			<stop  offset="1" style="stop-color:#B57E10"/>
		</linearGradient>
		<path style="fill:url(#SVGID_00000016783627236500279100000017234749685048005306_);" d="M179.84,230.4
			c1.3-2.61,2.61-5.3,3.9-8.02H88.31l-4.75,8.02H179.84z"/>
		
			<linearGradient id="SVGID_00000065068094893450788890000012721188354127791750_" gradientUnits="userSpaceOnUse" x1="34.6431" y1="411.7328" x2="155.5973" y2="202.234">
			<stop  offset="0" style="stop-color:#B57E10"/>
			<stop  offset="0.1507" style="stop-color:#B57E10"/>
			<stop  offset="0.4134" style="stop-color:#E5C35C"/>
			<stop  offset="0.5385" style="stop-color:#F9DF7B"/>
			<stop  offset="0.6826" style="stop-color:#FFF3A6"/>
			<stop  offset="0.8058" style="stop-color:#F9DF7B"/>
			<stop  offset="1" style="stop-color:#B57E10"/>
		</linearGradient>
		<path style="fill:url(#SVGID_00000065068094893450788890000012721188354127791750_);" d="M168.83,250.53
			c1.62-2.66,3.19-5.35,4.67-8.02H91.28l-4.76,8.02H168.83z"/>
		
			<linearGradient id="SVGID_00000044877546754715458710000014188012189392862620_" gradientUnits="userSpaceOnUse" x1="20.9163" y1="446.6437" x2="142.7144" y2="235.6833">
			<stop  offset="0" style="stop-color:#B57E10"/>
			<stop  offset="0.1507" style="stop-color:#B57E10"/>
			<stop  offset="0.4134" style="stop-color:#E5C35C"/>
			<stop  offset="0.5385" style="stop-color:#F9DF7B"/>
			<stop  offset="0.6826" style="stop-color:#FFF3A6"/>
			<stop  offset="0.8058" style="stop-color:#F9DF7B"/>
			<stop  offset="1" style="stop-color:#B57E10"/>
		</linearGradient>
		<path style="fill:url(#SVGID_00000044877546754715458710000014188012189392862620_);" d="M154.79,270.66
			c0.77-0.95,1.54-1.91,2.3-2.9c1.25-1.62,2.52-3.34,3.79-5.13H93.42l-3.93,8.02H154.79z"/>
		
			<linearGradient id="SVGID_00000093153518314619210420000007940703559759259040_" gradientUnits="userSpaceOnUse" x1="3.1023" y1="484.3657" x2="126.6702" y2="270.3398">
			<stop  offset="0" style="stop-color:#B57E10"/>
			<stop  offset="0.1507" style="stop-color:#B57E10"/>
			<stop  offset="0.4134" style="stop-color:#E5C35C"/>
			<stop  offset="0.5385" style="stop-color:#F9DF7B"/>
			<stop  offset="0.6826" style="stop-color:#FFF3A6"/>
			<stop  offset="0.8058" style="stop-color:#F9DF7B"/>
			<stop  offset="1" style="stop-color:#B57E10"/>
		</linearGradient>
		<path style="fill:url(#SVGID_00000093153518314619210420000007940703559759259040_);" d="M132.71,290.8
			c0.97-0.58,1.92-1.19,2.81-1.82c2.57-1.79,5.17-3.87,7.77-6.21H95.68l-3.22,8.02H132.71z"/>
	</g>
	
		<linearGradient id="SVGID_00000134214104670296450630000001150379163293588650_" gradientUnits="userSpaceOnUse" x1="17.336" y1="137.0016" x2="767.2639" y2="323.3542">
		<stop  offset="0" style="stop-color:#3C6BB3"/>
		<stop  offset="0.2539" style="stop-color:#3661A2"/>
		<stop  offset="0.7547" style="stop-color:#264676"/>
		<stop  offset="1" style="stop-color:#1D375E"/>
	</linearGradient>
	<path style="fill:url(#SVGID_00000134214104670296450630000001150379163293588650_);" d="M308.9,61.78
		c3.41,0.74,5.42,1.57,6.02,2.51c0.6,0.94-0.1,1.91-2.11,2.91s-4.88,1.84-8.63,2.51c-1.34,0.27-3.78,0.5-7.32,0.7
		c-3.54,0.2-8.06,0.44-13.54,0.7c-1.2,5.89-3.01,13.98-5.42,24.27c-2.41,10.3-5.52,21.87-9.33,34.71
		c-3.81,12.84-8.39,26.51-13.74,41.02c-5.35,14.51-11.5,28.89-18.46,43.13c-6.96,14.24-14.81,27.85-23.57,40.82
		c-8.76,12.97-18.49,24.44-29.19,34.4c-10.7,9.96-22.37,17.89-35.01,23.77c-12.64,5.88-26.38,8.83-41.22,8.83
		c-6.82,0-12.5-0.9-17.05-2.71c-4.54-1.8-8.22-4.18-11.03-7.12c-2.81-2.94-4.85-6.25-6.12-9.93c-1.27-3.68-2.04-7.36-2.31-11.03
		c-0.27-3.68-0.17-7.16,0.3-10.43c0.47-3.28,1.04-6.05,1.71-8.33c1.07-3.34,2.18-5.62,3.31-6.82c1.14-1.2,2.11-1.71,2.91-1.5
		c0.8,0.2,1.37,0.97,1.71,2.31c0.34,1.34,0.24,2.88-0.3,4.61c-0.27,1.07-0.57,2.57-0.9,4.51c-0.33,1.94-0.43,4.04-0.3,6.32
		c0.13,2.27,0.74,4.54,1.81,6.82c1.07,2.27,2.84,4.34,5.31,6.22c2.48,1.87,5.89,3.41,10.23,4.61c4.34,1.21,9.93,1.81,16.75,1.81
		c8.69,0,17.02-2.78,24.98-8.33c7.96-5.55,15.51-12.97,22.67-22.27c7.15-9.3,13.87-19.99,20.16-32.1
		c6.29-12.1,12.1-24.71,17.45-37.81c5.35-13.11,10.2-26.31,14.54-39.62c4.34-13.31,8.19-25.78,11.54-37.41
		c3.34-11.63,6.12-22,8.32-31.09c2.21-9.09,3.84-15.98,4.92-20.66c-9.36,0.27-19.09,0.47-29.19,0.6c-10.1,0.13-20.23,0.24-30.39,0.3
		c-10.16,0.07-20.09,0.1-29.79,0.1c-9.7,0-18.76-0.03-27.18-0.1c-8.42-0.07-16.02-0.17-22.77-0.3c-6.75-0.13-12.27-0.33-16.55-0.6
		c-4.54-0.27-8.83-0.57-12.84-0.9c-4.01-0.33-7.62-0.7-10.83-1.1c-5.62-0.67-10.5-1.27-14.64-1.81c-4.14-0.53-7.45-1.13-9.93-1.81
		c-2.47-0.67-4.11-1.47-4.91-2.41c-0.8-0.93-0.8-2.14,0-3.61c0.8-1.61,2.31-2.47,4.51-2.61c2.21-0.13,4.85,0.03,7.92,0.5
		c3.08,0.47,6.39,1.1,9.93,1.91c3.54,0.8,7.05,1.34,10.53,1.61c13.24,1.07,27.62,1.74,43.13,2.01c15.51,0.27,31.2,0.33,47.04,0.2
		c15.85-0.13,31.43-0.43,46.74-0.9c15.31-0.47,29.32-0.9,42.03-1.3c0.53-1.21,1.2-2.57,2.01-4.11c0.8-1.54,1.8-3.11,3.01-4.71
		c0.67-1.07,2.07-2.24,4.21-3.51c2.14-1.27,4.62-2.51,7.42-3.71c2.81-1.2,5.82-2.37,9.03-3.51c3.21-1.13,6.22-2.01,9.03-2.61
		s5.25-0.9,7.32-0.9c2.07,0,3.44,0.4,4.11,1.2c0.67,1.2,1.04,2.78,1.1,4.71c0.07,1.94-0.04,3.91-0.3,5.92
		c-0.27,2.01-0.64,3.91-1.1,5.72c-0.47,1.81-0.77,3.18-0.9,4.11h7.82C300.38,60.61,305.49,61.05,308.9,61.78z"/>
</g>
<linearGradient id="SVGID_00000077325674824037519890000001332320267634901643_" gradientUnits="userSpaceOnUse" x1="493.49" y1="50.0948" x2="541.98" y2="134.082">
	<stop  offset="0" style="stop-color:#B57E10"/>
	<stop  offset="0.1507" style="stop-color:#B57E10"/>
	<stop  offset="0.4134" style="stop-color:#E5C35C"/>
	<stop  offset="0.5385" style="stop-color:#F9DF7B"/>
	<stop  offset="0.6826" style="stop-color:#FFF3A6"/>
	<stop  offset="0.8058" style="stop-color:#F9DF7B"/>
	<stop  offset="1" style="stop-color:#B57E10"/>
</linearGradient>
<path style="fill:url(#SVGID_00000077325674824037519890000001332320267634901643_);" d="M520.64,121.39l22.04,5.99l-3.99-9.14
	l24.08-19.06l-7.47-2.19l3.48-15.84l-13.65,2.83l-1.67-7.08l-11.46,9.89l2.32-24.7l-8.24,3.35l-7.43-13.83l0-0.07l-0.02,0.04
	l-0.02-0.04l0,0.07l-7.43,13.83l-8.24-3.35l2.29,24.44l0,0l-11.44-9.64l-1.67,7.08l-13.65-2.83l3.48,15.84l-7.47,2.19l24.08,19.06
	l-3.99,9.14l22.04-5.99c0.66-0.18,1.34-0.27,2.02-0.27l0,0C519.3,121.12,519.98,121.21,520.64,121.39z"/>
<path class="st14" d="M47.07,227.25l-0.37,0V61.74L45,62.08v165.17l-0.39,0c-1.14,0-2.06,0.93-2.06,2.06v9.86
	c0,1.14,0.93,2.07,2.07,2.06l2.46-0.01c1.14,0,2.06-0.93,2.06-2.06v-9.86C49.15,228.17,48.22,227.24,47.07,227.25z"/>
</svg>
